<svg xmlns="http://www.w3.org/2000/svg" width="375" viewBox="0 0 375 375" height="375" version="1.0"><path fill="#ED1C24" d="M 317.609375 119.375 L 210.074219 11.839844 C 198.175781 -0.0546875 178.886719 -0.0546875 166.984375 11.839844 L 84.9375 93.894531 L 142.644531 58.226562 C 144.917969 54.238281 147.082031 54.707031 148.335938 54.707031 L 233.078125 54.707031 C 235.5625 54.707031 243.023438 54.085938 243.023438 58.230469 C 243.023438 59.886719 229.757812 88.894531 227.070312 88.894531 C 223.546875 88.894531 217.332031 79.15625 197.023438 79.15625 C 182.726562 79.15625 167.601562 87.652344 167.601562 107.542969 C 167.601562 119.972656 168.222656 123.90625 174.234375 123.90625 C 187.703125 123.90625 188.949219 114.378906 216.296875 114.378906 C 218.574219 114.378906 223.339844 114.378906 223.339844 117.90625 C 223.339844 118.9375 215.257812 151.261719 211.738281 151.261719 C 209.664062 151.261719 204.074219 148.363281 195.992188 148.363281 C 177.757812 148.363281 168.640625 158.929688 168.640625 175.917969 C 168.640625 193.945312 176.921875 222.957031 176.71875 225.234375 C 176.855469 226.839844 174.726562 227.144531 172.707031 227.164062 L 139.929688 242.9375 L 166.984375 270 C 178.886719 281.894531 198.175781 281.894531 210.074219 270 L 317.609375 162.464844 C 329.503906 150.566406 329.503906 131.273438 317.609375 119.375"/><path fill="#BF1B2C" d="M 169.886719 227.097656 L 145.433594 227.097656 C 140.253906 227.097656 134.039062 231.03125 134.039062 153.332031 C 134.039062 87.34375 138.515625 65.453125 142.644531 58.226562 L 84.9375 93.894531 L 59.449219 119.375 C 47.558594 131.273438 47.558594 150.566406 59.449219 162.464844 L 139.929688 242.9375 L 172.707031 227.164062 C 171.605469 227.171875 170.539062 227.097656 169.886719 227.097656"/><g fill="#FFF"><g><g><path d="M 2.808594 0 L 15.28125 0 L 15.28125 -11.609375 L 29.320312 -11.609375 L 29.320312 -22.246094 L 15.28125 -22.246094 L 15.28125 -26.890625 L 30.886719 -26.890625 L 30.886719 -37.800781 L 2.808594 -37.800781 Z M 2.808594 0" transform="translate(31.84 345.244)"/></g></g></g><g fill="#FFF"><g><g><path d="M 2.808594 0 L 15.28125 0 L 15.28125 -37.800781 L 2.808594 -37.800781 Z M 2.808594 0" transform="translate(76.715 345.244)"/></g></g></g><g fill="#FFF"><g><g><path d="M 21.761719 0.863281 C 35.371094 0.863281 42.226562 -8.046875 42.226562 -18.898438 C 42.226562 -29.753906 35.371094 -38.664062 21.761719 -38.664062 C 8.101562 -38.664062 1.296875 -29.753906 1.296875 -18.898438 C 1.296875 -8.046875 8.101562 0.863281 21.761719 0.863281 Z M 21.761719 -10.476562 C 16.902344 -10.476562 14.09375 -13.714844 14.09375 -18.898438 C 14.09375 -24.085938 16.902344 -27.324219 21.761719 -27.324219 C 26.566406 -27.324219 29.375 -24.085938 29.375 -18.898438 C 29.375 -13.714844 26.566406 -10.476562 21.761719 -10.476562 Z M 21.761719 -10.476562" transform="translate(107.28 345.244)"/></g></g></g><g fill="#FFF"><g><g><path d="M 2.808594 0 L 15.28125 0 L 15.28125 -11.285156 C 15.28125 -13.285156 15.28125 -15.390625 15.011719 -17.710938 L 27.757812 0 L 38.339844 0 L 38.339844 -37.800781 L 25.867188 -37.800781 L 25.867188 -26.515625 C 25.867188 -24.515625 25.867188 -22.355469 26.136719 -20.089844 L 13.390625 -37.800781 L 2.808594 -37.800781 Z M 2.808594 0" transform="translate(163.226 345.244)"/></g></g></g><g fill="#FFF"><g><g><path d="M 10.800781 0 L 23.273438 0 L 23.273438 -26.890625 L 33.371094 -26.890625 L 33.371094 -37.800781 L 0.648438 -37.800781 L 0.648438 -26.890625 L 10.800781 -26.890625 Z M 10.800781 0" transform="translate(216.795 345.244)"/></g></g></g><g fill="#FFF"><g><g><path d="M 2.808594 0 L 31.804688 0 L 31.804688 -9.9375 L 15.28125 -9.9375 L 15.28125 -14.417969 L 29.539062 -14.417969 L 29.539062 -23.597656 L 15.28125 -23.597656 L 15.28125 -27.917969 L 31.480469 -27.917969 L 31.480469 -37.800781 L 2.808594 -37.800781 Z M 2.808594 0" transform="translate(263.236 345.244)"/></g></g></g><g fill="#FFF"><g><g><path d="M 22.410156 0.863281 C 26.40625 0.863281 30.078125 0.109375 33.480469 -1.402344 L 33.480469 -12.796875 C 31.535156 -11.070312 27.917969 -10.097656 24.03125 -10.097656 C 19.0625 -10.097656 14.203125 -12.582031 14.203125 -18.523438 C 14.203125 -25.273438 19.117188 -27.808594 24.246094 -27.808594 C 27.648438 -27.808594 31.105469 -26.675781 33.210938 -25.273438 L 33.210938 -36.394531 C 29.863281 -37.90625 25.921875 -38.664062 22.085938 -38.664062 C 11.71875 -38.664062 1.351562 -32.886719 1.351562 -18.523438 C 1.351562 -4.753906 11.664062 0.863281 22.410156 0.863281 Z M 22.410156 0.863281" transform="translate(309.245 345.244)"/></g></g></g></svg>